<svg width="20" height="20" viewBox="0 0 20 20" fill="none" xmlns="http://www.w3.org/2000/svg">
<path fill-rule="evenodd" clip-rule="evenodd" d="M8.89571 2.00628e-08C7.47708 0.000120879 6.07905 0.339494 4.81826 0.989804C3.55746 1.64011 2.47046 2.5825 1.64795 3.73835C0.825442 4.8942 0.291267 6.22998 0.0899958 7.63426C-0.111275 9.03854 0.0261936 10.4706 0.490933 11.8109C0.955673 13.1513 1.73421 14.361 2.76158 15.3393C3.78896 16.3176 5.03538 17.036 6.39686 17.4346C7.75835 17.8331 9.19541 17.9004 10.5882 17.6306C11.9809 17.3609 13.2889 16.7619 14.4031 15.8839L18.2255 19.7062C18.4229 19.8968 18.6873 20.0023 18.9617 20C19.2361 19.9976 19.4986 19.8875 19.6927 19.6934C19.8867 19.4994 19.9968 19.2369 19.9992 18.9625C20.0016 18.688 19.8961 18.4236 19.7054 18.2262L15.8831 14.4039C16.9172 13.0921 17.561 11.5156 17.741 9.8549C17.921 8.19422 17.6297 6.51642 16.9007 5.01352C16.1716 3.51061 15.0342 2.24333 13.6185 1.35669C12.2028 0.470054 10.5661 -0.000112141 8.89571 2.00628e-08ZM2.09253 8.89647C2.09253 7.09215 2.80929 5.36173 4.08513 4.08589C5.36098 2.81005 7.09139 2.09329 8.89571 2.09329C10.7 2.09329 12.4304 2.81005 13.7063 4.08589C14.9821 5.36173 15.6989 7.09215 15.6989 8.89647C15.6989 10.7008 14.9821 12.4312 13.7063 13.707C12.4304 14.9829 10.7 15.6996 8.89571 15.6996C7.09139 15.6996 5.36098 14.9829 4.08513 13.707C2.80929 12.4312 2.09253 10.7008 2.09253 8.89647Z" fill="#416EDF"/>
</svg>
